<svg width="1440" height="880" viewBox="0 0 1440 880" fill="none" xmlns="http://www.w3.org/2000/svg">
<g clip-path="url(#clip0_66_1322)">
<rect width="1440" height="880" transform="matrix(-1 0 0 1 1440 0)" fill="#931834"/>
<g filter="url(#filter0_f_66_1322)">
<path fill-rule="evenodd" clip-rule="evenodd" d="M1260.92 697.194L1260.07 694.532L1259.22 691.889L1258.37 689.266L1257.52 686.663L1256.67 684.079L1255.82 681.515L1254.96 678.97L1254.1 676.444L1253.23 673.935L1252.35 671.445L1251.45 668.973L1250.55 666.518L1249.63 664.08L1248.7 661.658L1247.75 659.253L1246.78 656.862L1245.79 654.487L1244.78 652.126L1243.74 649.778L1242.67 647.442L1241.58 645.118L1240.46 642.805L1239.31 640.502L1238.13 638.208L1236.91 635.92L1235.66 633.639L1234.38 631.363L1233.05 629.091L1231.69 626.82L1230.29 624.55L1228.85 622.279L1227.37 620.006L1225.84 617.728L1224.28 615.444L1222.68 613.153L1221.03 610.852L1219.34 608.539L1217.61 606.214L1215.84 603.874L1214.03 601.516L1212.18 599.14L1210.28 596.744L1208.35 594.325L1206.39 591.882L1204.38 589.412L1202.34 586.915L1200.27 584.388L1198.16 581.83L1196.02 579.238L1193.86 576.612L1191.67 573.95L1189.45 571.249L1187.21 568.509L1184.96 565.728L1182.69 562.906L1180.4 560.04L1178.11 557.129L1175.81 554.174L1173.51 551.172L1171.2 548.123L1168.9 545.027L1166.61 541.883L1164.34 538.69L1162.07 535.449L1159.83 532.159L1157.61 528.82L1155.42 525.434L1153.26 521.999L1151.13 518.517L1149.05 514.989L1147.01 511.414L1145.02 507.795L1143.09 504.133L1141.21 500.428L1139.39 496.682L1137.64 492.897L1135.95 489.075L1134.34 485.217L1132.81 481.326L1131.35 477.404L1129.98 473.453L1128.7 469.475L1127.51 465.473L1126.41 461.45L1125.41 457.408L1124.51 453.351L1123.71 449.281L1123.02 445.201L1122.43 441.114L1121.96 437.024L1121.59 432.933L1121.34 428.845L1121.2 424.762L1121.18 420.689L1121.27 416.629L1121.49 412.584L1121.82 408.559L1122.27 404.555L1122.84 400.577L1123.52 396.628L1124.33 392.71L1125.26 388.827L1126.3 384.982L1127.46 381.177L1128.74 377.415L1130.13 373.7L1131.63 370.033L1133.25 366.418L1134.97 362.855L1136.8 359.349L1138.74 355.902L1140.78 352.515L1142.93 349.191L1145.18 345.932L1147.52 342.741L1149.96 339.619L1152.5 336.568L1155.13 333.591L1157.85 330.689L1160.65 327.864L1163.54 325.118L1166.51 322.452L1169.57 319.867L1172.7 317.365L1175.9 314.947L1179.18 312.614L1182.52 310.367L1185.94 308.206L1189.41 306.134L1192.94 304.149L1196.53 302.253L1200.18 300.445L1203.87 298.727L1207.61 297.097L1211.4 295.556L1215.22 294.104L1219.09 292.74L1222.98 291.463L1226.91 290.274L1230.87 289.172L1234.85 288.156L1238.86 287.224L1242.88 286.377L1246.92 285.613L1250.97 284.931L1255.04 284.33L1259.11 283.809L1263.18 283.368L1267.26 283.003L1271.34 282.715L1275.42 282.501L1279.49 282.36L1283.56 282.289L1287.61 282.288L1291.65 282.353L1295.68 282.482L1299.69 282.673L1303.68 282.924L1307.64 283.233L1311.59 283.595L1315.5 284.009L1319.39 284.472L1323.25 284.981L1327.08 285.532L1330.88 286.124L1334.64 286.752L1338.36 287.413L1342.05 288.105L1345.7 288.824L1349.3 289.566L1352.87 290.33L1356.4 291.11L1359.88 291.904L1363.32 292.709L1366.72 293.521L1370.08 294.338L1373.39 295.155L1376.66 295.971L1379.88 296.781L1383.06 297.582L1386.2 298.373L1389.3 299.149L1392.36 299.909L1395.37 300.649L1398.34 301.368L1401.28 302.061L1404.18 302.728L1407.04 303.366L1409.86 303.973L1412.65 304.546L1415.41 305.085L1418.14 305.588L1420.83 306.052L1423.5 306.478L1426.15 306.863L1428.77 307.207L1431.36 307.508L1433.94 307.768L1436.5 307.983L1439.04 308.156L1441.57 308.285L1444.08 308.371L1446.58 308.414L1449.08 308.414L1451.56 308.372L1454.05 308.289L1456.53 308.166L1459 308.003L1461.48 307.803L1463.96 307.567L1466.45 307.295L1468.94 306.99L1471.43 306.652L1473.94 306.284L1476.45 305.887L1478.98 305.463L1481.52 305.014L1484.08 304.541L1486.64 304.046L1489.23 303.531L1491.83 302.998L1494.45 302.45L1497.09 301.889L1499.75 301.316L1502.43 300.733L1505.13 300.144L1507.85 299.551L1510.6 298.956L1513.36 298.361L1516.15 297.769L1518.96 297.182L1521.8 296.603L1524.65 296.035L1527.53 295.48L1530.43 294.94L1533.36 294.419L1536.3 293.919L1539.26 293.442L1542.25 292.99L1545.25 292.568L1548.27 292.176L1551.31 291.818L1554.36 291.496L1557.43 291.212L1560.51 290.968L1563.61 290.767L1566.72 290.61L1569.83 290.501L1572.96 290.44L1576.09 290.429L1579.22 290.471L1582.36 290.568L1585.5 290.72L1588.65 290.931L1591.78 291.2L1594.92 291.531L1598.05 291.924L1601.17 292.38L1604.28 292.902L1607.37 293.489L1610.46 294.144L1613.52 294.867L1616.57 295.659L1619.6 296.521L1622.6 297.454L1625.58 298.458L1628.53 299.533L1631.45 300.68L1634.33 301.9L1637.18 303.191L1640 304.556L1642.77 305.992L1645.51 307.5L1648.2 309.08L1650.85 310.731L1653.44 312.453L1655.99 314.244L1658.49 316.105L1660.93 318.034L1663.32 320.031L1665.65 322.093L1667.92 324.221L1670.14 326.412L1672.29 328.665L1674.37 330.979L1676.4 333.352L1678.35 335.783L1680.24 338.269L1682.07 340.809L1683.82 343.401L1685.51 346.043L1687.12 348.733L1688.66 351.469L1690.14 354.248L1691.54 357.069L1692.87 359.929L1694.12 362.825L1695.31 365.757L1696.42 368.72L1697.46 371.714L1698.43 374.735L1699.33 377.781L1700.16 380.849L1700.92 383.938L1701.61 387.045L1702.24 390.167L1702.8 393.303L1703.29 396.449L1703.72 399.604L1704.09 402.765L1704.39 405.931L1704.64 409.098L1704.83 412.265L1704.96 415.429L1705.04 418.59L1705.06 421.744L1705.04 424.89L1704.97 428.026L1704.85 431.15L1704.69 434.262L1704.49 437.358L1704.24 440.438L1703.97 443.501L1703.65 446.545L1703.31 449.569L1702.93 452.571L1702.53 455.552L1702.11 458.509L1701.66 461.443L1701.19 464.352L1700.71 467.236L1700.21 470.094L1699.7 472.926L1699.18 475.732L1698.65 478.511L1698.12 481.263L1697.59 483.989L1697.06 486.688L1696.54 489.36L1696.01 492.006L1695.5 494.627L1695 497.222L1694.51 499.792L1694.04 502.338L1693.58 504.86L1693.15 507.36L1692.74 509.838L1692.35 512.296L1691.99 514.734L1691.66 517.153L1691.36 519.556L1691.09 521.942L1690.85 524.314L1690.65 526.673L1690.49 529.021L1690.37 531.359L1690.28 533.689L1690.24 536.012L1690.23 538.331L1690.27 540.646L1690.35 542.961L1690.47 545.276L1690.63 547.594L1690.83 549.915L1691.08 552.243L1691.37 554.579L1691.7 556.925L1692.07 559.282L1692.48 561.652L1692.94 564.037L1693.43 566.439L1693.95 568.86L1694.52 571.3L1695.12 573.761L1695.75 576.246L1696.41 578.755L1697.1 581.29L1697.82 583.851L1698.57 586.441L1699.34 589.061L1700.13 591.71L1700.95 594.391L1701.78 597.104L1702.62 599.85L1703.48 602.629L1704.34 605.443L1705.22 608.291L1706.1 611.174L1706.98 614.093L1707.86 617.046L1708.73 620.036L1709.6 623.06L1710.46 626.119L1711.31 629.214L1712.15 632.343L1712.96 635.506L1713.76 638.702L1714.53 641.932L1715.28 645.193L1716 648.485L1716.69 651.808L1717.34 655.159L1717.96 658.539L1718.54 661.945L1719.08 665.377L1719.58 668.833L1720.02 672.311L1720.43 675.81L1720.78 679.329L1721.07 682.866L1721.32 686.418L1721.5 689.984L1721.63 693.563L1721.7 697.15L1721.7 700.745L1721.64 704.345L1721.5 707.947L1721.3 711.547L1721.02 715.145L1720.67 718.735L1720.25 722.316L1719.74 725.885L1719.15 729.437L1718.48 732.969L1717.73 736.479L1716.89 739.963L1715.96 743.418L1714.95 746.839L1713.85 750.223L1712.66 753.568L1711.38 756.869L1710 760.123L1708.54 763.327L1706.99 766.476L1705.34 769.569L1703.6 772.6L1701.78 775.568L1699.86 778.468L1697.85 781.299L1695.76 784.055L1693.58 786.736L1691.31 789.337L1688.96 791.856L1686.52 794.29L1684.01 796.637L1681.41 798.893L1678.74 801.058L1675.99 803.128L1673.17 805.102L1670.27 806.977L1667.31 808.752L1664.28 810.425L1661.19 811.996L1658.04 813.463L1654.83 814.825L1651.57 816.083L1648.26 817.237L1644.91 818.286L1641.51 819.231L1638.07 820.073L1634.59 820.813L1631.09 821.453L1627.56 821.993L1624 822.437L1620.43 822.786L1616.83 823.042L1613.23 823.209L1609.62 823.29L1606 823.287L1602.38 823.205L1598.76 823.046L1595.15 822.815L1591.55 822.516L1587.96 822.153L1584.38 821.73L1580.82 821.253L1577.28 820.725L1573.76 820.152L1570.27 819.538L1566.81 818.889L1563.37 818.209L1559.97 817.503L1556.6 816.778L1553.26 816.037L1549.95 815.285L1546.68 814.529L1543.44 813.772L1540.24 813.02L1537.08 812.277L1533.95 811.548L1530.86 810.838L1527.81 810.151L1524.79 809.492L1521.8 808.863L1518.84 808.27L1515.92 807.715L1513.03 807.203L1510.16 806.736L1507.32 806.317L1504.51 805.948L1501.72 805.633L1498.95 805.374L1496.2 805.171L1493.46 805.026L1490.74 804.941L1488.03 804.917L1485.33 804.954L1482.64 805.051L1479.95 805.21L1477.26 805.43L1474.57 805.709L1471.88 806.047L1469.18 806.442L1466.48 806.891L1463.76 807.392L1461.03 807.942L1458.29 808.537L1455.53 809.174L1452.75 809.848L1449.95 810.556L1447.13 811.292L1444.29 812.052L1441.43 812.83L1438.54 813.621L1435.63 814.42L1432.69 815.22L1429.73 816.017L1426.75 816.805L1423.74 817.578L1420.72 818.329L1417.66 819.054L1414.59 819.747L1411.5 820.402L1408.39 821.013L1405.27 821.575L1402.13 822.084L1398.98 822.533L1395.83 822.919L1392.66 823.237L1389.49 823.483L1386.32 823.652L1383.15 823.742L1379.99 823.749L1376.83 823.669L1373.68 823.502L1370.55 823.244L1367.43 822.894L1364.33 822.451L1361.25 821.913L1358.19 821.281L1355.16 820.553L1352.17 819.731L1349.2 818.814L1346.27 817.802L1343.37 816.697L1340.52 815.499L1337.7 814.209L1334.93 812.829L1332.2 811.361L1329.52 809.805L1326.89 808.164L1324.31 806.441L1321.79 804.636L1319.31 802.753L1316.89 800.795L1314.53 798.763L1312.22 796.661L1309.97 794.492L1307.77 792.258L1305.64 789.963L1303.56 787.61L1301.54 785.201L1299.57 782.741L1297.67 780.233L1295.82 777.68L1294.03 775.084L1292.29 772.451L1290.61 769.782L1288.98 767.081L1287.41 764.351L1285.88 761.596L1284.41 758.819L1282.99 756.023L1281.61 753.21L1280.28 750.383L1278.99 747.547L1277.74 744.702L1276.53 741.852L1275.36 739L1274.23 736.147L1273.13 733.296L1272.06 730.449L1271.02 727.608L1270.01 724.775L1269.02 721.952L1268.06 719.14L1267.12 716.341L1266.19 713.555L1265.28 710.785L1264.39 708.031L1263.51 705.294L1262.64 702.576L1261.77 699.875L1260.92 697.194Z" fill="#9E9F9F" fill-opacity="0.3"/>
</g>
<g filter="url(#filter1_f_66_1322)">
<path fill-rule="evenodd" clip-rule="evenodd" d="M-223.666 480.854L-221.594 478.979L-219.538 477.114L-217.499 475.259L-215.479 473.411L-213.478 471.57L-211.495 469.734L-209.531 467.901L-207.587 466.07L-205.663 464.241L-203.76 462.41L-201.876 460.577L-200.014 458.74L-198.173 456.897L-196.353 455.047L-194.555 453.188L-192.779 451.317L-191.025 449.433L-189.293 447.535L-187.583 445.62L-185.896 443.687L-184.23 441.734L-182.587 439.758L-180.965 437.758L-179.364 435.733L-177.783 433.68L-176.223 431.599L-174.682 429.486L-173.159 427.342L-171.654 425.163L-170.166 422.949L-168.693 420.699L-167.234 418.411L-165.789 416.084L-164.355 413.717L-162.931 411.308L-161.516 408.858L-160.108 406.366L-158.705 403.83L-157.305 401.25L-155.907 398.626L-154.509 395.957L-153.108 393.244L-151.703 390.487L-150.291 387.685L-148.87 384.839L-147.439 381.95L-145.995 379.017L-144.535 376.042L-143.058 373.025L-141.561 369.968L-140.041 366.873L-138.497 363.74L-136.926 360.571L-135.326 357.368L-133.693 354.133L-132.027 350.869L-130.324 347.578L-128.583 344.262L-126.801 340.925L-124.976 337.568L-123.106 334.196L-121.189 330.811L-119.223 327.417L-117.206 324.017L-115.137 320.614L-113.013 317.214L-110.835 313.819L-108.599 310.433L-106.306 307.061L-103.953 303.706L-101.54 300.374L-99.0661 297.066L-96.5307 293.79L-93.9333 290.547L-91.2734 287.344L-88.5511 284.184L-85.766 281.071L-82.9185 278.01L-80.0089 275.005L-77.0375 272.061L-74.0051 269.181L-70.9124 266.37L-67.7604 263.632L-64.5501 260.97L-61.2829 258.389L-57.9601 255.892L-54.5833 253.484L-51.1542 251.167L-47.6746 248.945L-44.1466 246.821L-40.5721 244.798L-36.9534 242.879L-33.2928 241.067L-29.5928 239.364L-25.8559 237.773L-22.0846 236.296L-18.2817 234.935L-14.4499 233.691L-10.5921 232.566L-6.71108 231.561L-2.8098 230.678L1.10879 229.916L5.04169 229.278L8.98597 228.763L12.9386 228.371L16.8965 228.102L20.8569 227.956L24.8168 227.933L28.7731 228.032L32.723 228.252L36.6636 228.593L40.5921 229.055L44.5055 229.636L48.4012 230.335L52.2763 231.152L56.128 232.086L59.9536 233.135L63.7505 234.298L67.5161 235.575L71.2478 236.962L74.9431 238.46L78.5996 240.066L82.2149 241.779L85.7867 243.596L89.3128 245.515L92.7909 247.535L96.2193 249.653L99.5957 251.867L102.918 254.174L106.186 256.572L109.396 259.058L112.547 261.629L115.638 264.283L118.668 267.017L121.635 269.827L124.538 272.712L127.376 275.666L130.149 278.689L132.855 281.776L135.494 284.924L138.064 288.131L140.567 291.392L143.001 294.706L145.365 298.069L147.661 301.479L149.887 304.931L152.043 308.423L154.13 311.954L156.147 315.518L158.095 319.114L159.974 322.738L161.785 326.388L163.528 330.06L165.204 333.751L166.815 337.458L168.36 341.179L169.842 344.908L171.262 348.645L172.62 352.385L173.919 356.127L175.161 359.865L176.346 363.599L177.477 367.324L178.557 371.038L179.586 374.738L180.567 378.422L181.504 382.087L182.397 385.73L183.249 389.349L184.064 392.942L184.843 396.506L185.589 400.04L186.305 403.541L186.994 407.008L187.658 410.438L188.301 413.831L188.924 417.184L189.532 420.498L190.127 423.769L190.711 426.998L191.288 430.183L191.86 433.324L192.43 436.42L193.001 439.47L193.576 442.476L194.157 445.435L194.747 448.349L195.348 451.217L195.962 454.041L196.593 456.819L197.241 459.553L197.911 462.244L198.602 464.893L199.317 467.5L200.059 470.067L200.828 472.594L201.626 475.084L202.455 477.538L203.315 479.956L204.207 482.342L205.133 484.696L206.094 487.021L207.089 489.318L208.119 491.589L209.185 493.836L210.286 496.063L211.422 498.269L212.594 500.458L213.8 502.633L215.04 504.794L216.314 506.944L217.621 509.085L218.959 511.22L220.33 513.349L221.73 515.476L223.16 517.602L224.619 519.73L226.105 521.86L227.617 523.995L229.154 526.136L230.714 528.286L232.296 530.446L233.898 532.618L235.518 534.803L237.155 537.002L238.807 539.219L240.472 541.453L242.148 543.706L243.833 545.979L245.524 548.274L247.22 550.592L248.918 552.934L250.616 555.3L252.31 557.693L254 560.111L255.682 562.557L257.354 565.031L259.013 567.533L260.656 570.064L262.281 572.623L263.886 575.213L265.467 577.831L267.023 580.479L268.549 583.157L270.045 585.864L271.507 588.599L272.933 591.364L274.32 594.156L275.666 596.976L276.969 599.824L278.227 602.697L279.436 605.596L280.594 608.519L281.701 611.466L282.752 614.436L283.746 617.427L284.68 620.438L285.554 623.468L286.364 626.516L287.108 629.58L287.786 632.658L288.394 635.749L288.932 638.852L289.397 641.964L289.788 645.083L290.104 648.209L290.343 651.339L290.504 654.471L290.586 657.604L290.588 660.734L290.508 663.861L290.347 666.982L290.103 670.095L289.776 673.199L289.366 676.29L288.871 679.367L288.292 682.428L287.629 685.47L286.881 688.492L286.05 691.492L285.135 694.467L284.136 697.415L283.055 700.335L281.891 703.224L280.646 706.081L279.321 708.904L277.916 711.691L276.433 714.44L274.873 717.149L273.237 719.817L271.527 722.443L269.744 725.024L267.891 727.56L265.968 730.049L263.978 732.49L261.923 734.881L259.804 737.223L257.624 739.513L255.385 741.751L253.089 743.936L250.739 746.068L248.337 748.146L245.885 750.169L243.387 752.138L240.843 754.052L238.258 755.91L235.633 757.714L232.971 759.463L230.275 761.157L227.548 762.797L224.791 764.382L222.009 765.915L219.203 767.395L216.376 768.823L213.53 770.2L210.668 771.527L207.794 772.805L204.908 774.035L202.014 775.219L199.114 776.358L196.211 777.452L193.305 778.505L190.401 779.516L187.5 780.489L184.604 781.424L181.715 782.324L178.835 783.19L175.966 784.024L173.109 784.828L170.267 785.604L167.441 786.355L164.632 787.082L161.842 787.788L159.073 788.474L156.325 789.143L153.599 789.798L150.898 790.44L148.221 791.072L145.569 791.696L142.944 792.315L140.346 792.93L137.776 793.546L135.234 794.163L132.72 794.784L130.235 795.413L127.779 796.05L125.352 796.699L122.954 797.361L120.585 798.04L118.244 798.738L115.932 799.456L113.648 800.197L111.391 800.963L109.16 801.756L106.955 802.578L104.774 803.43L102.617 804.315L100.482 805.233L98.3686 806.186L96.2748 807.176L94.1993 808.203L92.1407 809.269L90.0973 810.375L88.0676 811.52L86.0498 812.707L84.0421 813.936L82.0427 815.206L80.0499 816.518L78.0616 817.873L76.0759 819.27L74.091 820.708L72.1048 822.189L70.1155 823.71L68.1209 825.272L66.1191 826.873L64.1082 828.514L62.0863 830.192L60.0513 831.907L58.0013 833.657L55.9346 835.442L53.8492 837.258L51.7435 839.106L49.6155 840.982L47.4638 842.885L45.2865 844.814L43.0823 846.766L40.8496 848.738L38.5869 850.729L36.293 852.737L33.9666 854.758L31.6064 856.791L29.2115 858.832L26.7808 860.88L24.3135 862.931L21.8086 864.984L19.2656 867.034L16.6837 869.08L14.0625 871.119L11.4015 873.147L8.70042 875.162L5.95908 877.162L3.17732 879.143L0.355136 881.102L-2.5074 883.037L-5.4101 884.945L-8.35269 886.824L-11.3348 888.67L-14.3559 890.48L-17.4155 892.253L-20.513 893.986L-23.6475 895.675L-26.8182 897.318L-30.0242 898.913L-33.2642 900.455L-36.5372 901.942L-39.8417 903.371L-43.1763 904.738L-46.5394 906.041L-49.9293 907.276L-53.3441 908.44L-56.7819 909.53L-60.2406 910.542L-63.7179 911.475L-67.2117 912.325L-70.7194 913.089L-74.2386 913.764L-77.7666 914.349L-81.3008 914.84L-84.8384 915.234L-88.3765 915.531L-91.9123 915.728L-95.4426 915.822L-98.9646 915.813L-102.475 915.699L-105.971 915.478L-109.449 915.149L-112.906 914.711L-116.34 914.164L-119.746 913.506L-123.121 912.738L-126.463 911.859L-129.769 910.868L-133.034 909.767L-136.257 908.555L-139.434 907.233L-142.562 905.802L-145.638 904.261L-148.659 902.613L-151.622 900.857L-154.525 898.997L-157.366 897.032L-160.14 894.966L-162.848 892.8L-165.485 890.537L-168.051 888.179L-170.544 885.729L-172.962 883.191L-175.304 880.568L-177.569 877.863L-179.756 875.079L-181.865 872.222L-183.895 869.294L-185.847 866.301L-187.72 863.246L-189.515 860.133L-191.233 856.968L-192.874 853.755L-194.44 850.498L-195.932 847.202L-197.352 843.872L-198.702 840.512L-199.984 837.128L-201.2 833.723L-202.353 830.303L-203.446 826.871L-204.481 823.433L-205.463 819.992L-206.393 816.553L-207.277 813.12L-208.117 809.697L-208.917 806.287L-209.681 802.895L-210.414 799.523L-211.119 796.176L-211.8 792.855L-212.463 789.564L-213.11 786.305L-213.747 783.081L-214.377 779.893L-215.005 776.745L-215.636 773.636L-216.273 770.57L-216.92 767.546L-217.582 764.565L-218.263 761.629L-218.965 758.738L-219.694 755.891L-220.452 753.089L-221.243 750.331L-222.07 747.617L-222.936 744.946L-223.844 742.316L-224.796 739.727L-225.794 737.177L-226.841 734.664L-227.938 732.187L-229.087 729.743L-230.288 727.33L-231.544 724.947L-232.855 722.589L-234.22 720.256L-235.64 717.944L-237.114 715.65L-238.641 713.371L-240.22 711.104L-241.848 708.845L-243.524 706.592L-245.244 704.342L-247.006 702.09L-248.806 699.835L-250.641 697.572L-252.507 695.299L-254.398 693.012L-256.311 690.71L-258.241 688.389L-260.183 686.047L-262.132 683.681L-264.082 681.289L-266.028 678.87L-267.964 676.422L-269.884 673.943L-271.784 671.432L-273.657 668.888L-275.498 666.31L-277.3 663.698L-279.06 661.05L-280.77 658.368L-282.426 655.652L-284.023 652.901L-285.556 650.116L-287.02 647.299L-288.411 644.45L-289.725 641.571L-290.958 638.662L-292.106 635.726L-293.166 632.765L-294.136 629.78L-295.013 626.773L-295.795 623.747L-296.481 620.704L-297.07 617.646L-297.56 614.576L-297.95 611.495L-298.24 608.407L-298.43 605.313L-298.519 602.217L-298.507 599.121L-298.396 596.027L-298.185 592.938L-297.875 589.855L-297.467 586.782L-296.963 583.721L-296.364 580.674L-295.672 577.642L-294.888 574.629L-294.015 571.636L-293.054 568.666L-292.009 565.719L-290.881 562.798L-289.674 559.904L-288.39 557.039L-287.031 554.203L-285.602 551.4L-284.105 548.628L-282.543 545.89L-280.92 543.186L-279.239 540.516L-277.503 537.883L-275.716 535.285L-273.881 532.723L-272.001 530.198L-270.081 527.709L-268.123 525.256L-266.13 522.839L-264.107 520.458L-262.056 518.113L-259.981 515.802L-257.884 513.525L-255.77 511.281L-253.64 509.07L-251.498 506.891L-249.347 504.741L-247.189 502.621L-245.028 500.529L-242.864 498.464L-240.702 496.425L-238.542 494.409L-236.387 492.417L-234.24 490.445L-232.101 488.493L-229.973 486.56L-227.857 484.643L-225.754 482.742L-223.666 480.854Z" fill="#9E9F9F" fill-opacity="0.3"/>
</g>
</g>
<defs>
<filter id="filter0_f_66_1322" x="1117.18" y="278.288" width="608.521" height="549.461" filterUnits="userSpaceOnUse" color-interpolation-filters="sRGB">
<feFlood flood-opacity="0" result="BackgroundImageFix"/>
<feBlend mode="normal" in="SourceGraphic" in2="BackgroundImageFix" result="shape"/>
<feGaussianBlur stdDeviation="2" result="effect1_foregroundBlur_66_1322"/>
</filter>
<filter id="filter1_f_66_1322" x="-302.519" y="223.933" width="597.107" height="695.889" filterUnits="userSpaceOnUse" color-interpolation-filters="sRGB">
<feFlood flood-opacity="0" result="BackgroundImageFix"/>
<feBlend mode="normal" in="SourceGraphic" in2="BackgroundImageFix" result="shape"/>
<feGaussianBlur stdDeviation="2" result="effect1_foregroundBlur_66_1322"/>
</filter>
<clipPath id="clip0_66_1322">
<rect width="1440" height="880" fill="white" transform="matrix(-1 0 0 1 1440 0)"/>
</clipPath>
</defs>
</svg>
