<svg width="584" height="568" viewBox="0 0 584 568" fill="none" xmlns="http://www.w3.org/2000/svg">
<path d="M330.144 437.598C329.903 437.661 329.698 437.813 329.575 438.02C329.452 438.228 329.42 438.473 329.486 438.703C329.553 438.932 329.712 439.127 329.929 439.245C330.147 439.363 330.404 439.393 330.645 439.33C338.555 437.677 345.971 434.34 352.337 429.566C376.535 412.518 375.283 388.333 389.056 366.208C400.075 349.339 409.747 351.279 408.996 349.1C408.968 349.014 408.922 348.934 408.86 348.866C408.798 348.797 408.723 348.742 408.637 348.702C408.552 348.663 408.459 348.641 408.365 348.638C408.27 348.634 408.176 348.649 408.088 348.682C364.765 363.879 389.244 418.071 330.144 437.598ZM505.472 384.511C506.692 383.287 507.913 382.003 509.103 380.719C518.306 370.06 524.754 353.549 524.128 341.397C524.112 341.266 524.059 341.141 523.974 341.037C523.889 340.933 523.775 340.854 523.646 340.808C523.516 340.761 523.376 340.75 523.24 340.775C523.104 340.8 522.978 340.86 522.876 340.949C521.937 341.815 524.566 346.592 517.961 361.64C511.701 375.912 506.223 379.555 500.056 386.213C494.532 392.297 490.333 399.37 487.705 407.018C485.076 414.667 484.072 422.738 484.749 430.761C484.785 430.929 484.881 431.081 485.021 431.19C485.16 431.299 485.335 431.358 485.516 431.358C485.697 431.358 485.871 431.299 486.011 431.19C486.151 431.081 486.247 430.929 486.283 430.761C486.068 422.218 487.656 413.722 490.953 405.777C494.249 397.832 499.187 390.6 505.472 384.511ZM230.632 255.586C233.762 253.525 233.543 247.225 230.632 244.897C229.808 244.263 228.849 243.81 227.821 243.57C226.793 243.33 225.723 243.309 224.686 243.509C223.649 243.708 222.671 244.123 221.821 244.725C220.971 245.326 220.271 246.098 219.769 246.987C219.188 248.376 219.084 249.905 219.471 251.354C219.857 252.803 220.716 254.099 221.922 255.054C223.129 256.009 224.621 256.575 226.186 256.67C227.751 256.766 229.307 256.386 230.632 255.586ZM222.023 248.748C222.962 245.344 229.129 244.867 230.068 248.27C230.694 250.599 230.412 252.242 229.16 253.137C228.408 253.584 227.552 253.847 226.668 253.904C225.784 253.961 224.898 253.811 224.089 253.466C223.242 253.012 222.579 252.301 222.204 251.446C221.83 250.592 221.766 249.642 222.023 248.748ZM337.594 200.349C337.474 200.341 337.353 200.356 337.239 200.395C337.125 200.433 337.021 200.493 336.933 200.572C336.845 200.65 336.775 200.745 336.727 200.851C336.679 200.956 336.654 201.07 336.655 201.185C336.655 204.171 331.365 207.156 330.394 207.455C330.207 207.499 330.046 207.611 329.947 207.768C329.847 207.925 329.816 208.113 329.862 208.291C329.908 208.469 330.026 208.623 330.19 208.718C330.354 208.813 330.552 208.842 330.738 208.799C338.971 207.186 340.223 200.289 337.594 200.349ZM326.606 195.781C326.231 195.572 324.572 194.407 323.977 193.959C323.977 193.571 325.448 188.585 325.73 187.63C326.012 186.674 324.728 186.435 324.384 187.212C323.074 189.632 322.026 192.173 321.254 194.795C321.504 195.661 325.855 196.796 326.168 196.796C326.299 196.813 326.431 196.788 326.545 196.725C326.659 196.663 326.748 196.566 326.798 196.45C326.849 196.334 326.857 196.205 326.822 196.084C326.787 195.963 326.712 195.856 326.606 195.781ZM316.276 179.777C316.232 179.519 316.092 179.284 315.883 179.115C315.674 178.946 315.408 178.853 315.134 178.853C314.86 178.853 314.594 178.946 314.385 179.115C314.176 179.284 314.036 179.519 313.991 179.777C313.872 181.836 313.872 183.899 313.991 185.958C314.187 186.264 314.485 186.499 314.837 186.625C315.189 186.752 315.575 186.763 315.934 186.657C316.293 186.55 316.605 186.333 316.82 186.039C317.035 185.744 317.141 185.39 317.122 185.032C316.688 183.306 316.405 181.548 316.276 179.777ZM338.157 185.002C337.756 183.29 337.474 181.554 337.312 179.807C337.312 179.514 337.19 179.233 336.973 179.026C336.756 178.819 336.461 178.702 336.154 178.702C335.847 178.702 335.552 178.819 335.335 179.026C335.118 179.233 334.996 179.514 334.996 179.807C334.882 181.796 334.882 183.789 334.996 185.778C335.013 186.01 335.084 186.234 335.202 186.437C335.321 186.639 335.485 186.814 335.682 186.949C335.879 187.084 336.105 187.177 336.344 187.219C336.583 187.262 336.829 187.254 337.064 187.197C337.299 187.139 337.518 187.033 337.706 186.885C337.893 186.738 338.045 186.553 338.149 186.343C338.253 186.134 338.308 185.905 338.309 185.674C338.311 185.442 338.259 185.213 338.157 185.002Z" fill="#F7F7F7"/>
<path d="M583.134 144.335C582.915 125.734 576.373 118.389 556.182 118.956C550.423 118.956 447.718 119.942 440.361 120.181C435.43 120.182 430.55 121.147 426.025 123.017C423.427 124.002 409.841 130.482 408.339 133.915C406.711 136.363 408.62 206.111 408.339 220.502C406.164 219.321 403.928 218.245 401.64 217.278C401.226 215.317 400.349 213.471 399.074 211.883C397.799 210.294 396.16 209.004 394.283 208.111C391.404 207.037 387.71 208.32 385.581 206.38C383.453 204.439 387.272 203.394 387.679 200.408C387.666 198.338 387.414 196.275 386.927 194.258C385.04 183.434 382.405 172.742 379.039 162.25C376.222 153.621 373.279 146.306 365.172 141.618C365.172 127.108 363.638 42.073 362.793 37.5645C361.959 33.1149 359.471 29.1013 355.786 26.2603C352.1 23.4193 347.463 21.9415 342.727 22.0982C342.414 22.0982 126.987 22.0982 126.737 22.3371C118.129 27.2337 115.812 38.1616 115.249 46.2232C115.061 50.254 118.755 131.646 120.226 157.503C104.981 157.801 27.9761 159.772 23.5624 162.011C13.5768 164.34 2.52683 170.969 0.366924 181.747C-0.979104 188.674 1.74425 321.75 2.65204 328.05C3.30216 334.854 6.48986 341.211 11.636 345.964C17.2392 350.652 24.8771 351.518 31.6073 351.757L174.443 349.189C160.482 379.345 144.392 422.101 133.749 448.705C133.699 448.781 133.672 448.869 133.672 448.958C133.672 449.048 133.699 449.136 133.749 449.212C136.629 451.911 139.774 454.34 143.14 456.468C138.037 473.098 138.601 474.024 137.474 475.367C127.801 486.684 116.125 493.282 104.606 494.357C99.253 494.924 93.9628 495.82 92.0846 500.776C90.5508 505.285 94.6202 508.3 99.3782 509.554C102.509 510.361 123.857 514.869 127.019 515.227C129.82 515.675 132.695 515.065 135.032 513.526C137.286 511.943 144.705 503.583 147.553 501.075C142.388 524.961 138.789 517.347 151.091 522.453C151.262 522.54 151.452 522.59 151.647 522.599C151.841 522.608 152.035 522.576 152.215 522.504C152.395 522.433 152.556 522.324 152.686 522.186C152.816 522.048 152.913 521.884 152.969 521.707C155.16 515.735 169.998 481.608 176.039 472.74C177.51 508.808 177.26 506.927 177.792 507.076C179.889 507.584 182.175 508.062 184.522 508.509C184.522 513.526 184.679 518.661 185.117 524.274C185.117 524.453 184.867 524.752 184.616 525.23C176.853 541.472 168.151 548.101 158.697 552.102C154.503 553.893 148.712 556.341 148.868 561.865C148.868 566.642 154.002 568.165 158.979 567.986C166.46 567.747 176.133 566.792 180.516 566.583C193.037 565.866 193.35 563.597 198.671 553.356C199.892 550.997 201.332 548.19 202.146 546.817C203.617 563.597 201.676 566.075 204.087 565.956C210.629 565.627 213.478 567.329 213.478 565.09C213.728 558.939 216.608 534.754 218.11 528.813C218.11 528.126 217.61 527.738 216.858 527.588C217.797 522.035 219.989 511.107 220.27 509.107C221.835 508.898 223.401 508.659 224.621 508.39C224.966 508.39 224.621 509.972 229.912 489.162C267.913 503.464 308.451 506.897 344.825 498.746C346.108 503.493 355.405 535.859 360.476 550.041C362.204 554.675 364.506 559.095 367.332 563.209C368.052 563.866 369.272 565.03 370.462 565.03C371.651 565.03 372.966 563.448 373.279 561.835C373.592 560.223 368.678 513.137 367.019 496.148C374.456 494.391 381.668 491.858 388.524 488.594L398.666 520.721C398.963 521.2 399.41 521.578 399.944 521.801C400.477 522.025 401.071 522.083 401.642 521.968C402.212 521.852 402.73 521.569 403.123 521.158C403.516 520.747 403.763 520.229 403.831 519.676L402.861 481.19C407.6 478.244 412.138 475.012 416.446 471.516C418.402 473.32 420.603 474.866 422.988 476.114C423.234 476.243 423.522 476.275 423.792 476.202C424.061 476.129 424.29 475.958 424.428 475.726C427.031 471.971 429.952 468.426 433.162 465.126C432.536 468.978 431.315 476.86 431.158 479.309C431.154 479.467 431.184 479.624 431.245 479.771C431.306 479.917 431.398 480.051 431.516 480.162C431.633 480.274 431.772 480.362 431.926 480.42C432.08 480.479 432.245 480.507 432.411 480.503C435.735 480.404 439.054 480.817 442.24 481.727C432.035 486.415 427.371 490.386 427.997 493.67C429.22 499.535 430.936 505.296 433.13 510.898C434.821 515.556 436.574 520.393 441.833 522.423C465.936 532.157 501.747 525.051 525.944 515.347C546.479 507.673 549.484 495.253 547.668 477.696C547.292 474.352 543.223 473.964 534.677 474.173L555.494 449.063C561.754 441.927 556.308 442.166 554.336 428.162C556.221 430.827 558.486 433.229 561.066 435.298C561.219 435.413 561.395 435.496 561.584 435.542C561.773 435.589 561.969 435.597 562.161 435.567C563.007 435.418 562.349 435.836 570.112 422.519C570.26 422.277 570.315 421.993 570.27 421.716C570.224 421.438 570.08 421.185 569.862 420.997C566.45 418.309 558.217 412.039 558.217 412.039C562.461 411.081 566.642 409.885 570.738 408.456C571.715 408.216 572.599 407.715 573.287 407.011C573.974 406.308 574.437 405.431 574.62 404.485C575.027 402.156 575.058 355.25 575.121 348.861C575.121 347.815 573.368 347.517 573.18 348.652C569.518 372.329 552.708 392.035 531.234 397.917C531.923 395.259 533.676 389.497 532.705 387.914C529.165 385.789 525.398 384.027 521.467 382.659C525.38 380.54 534.427 375.016 535.084 373.314C535.491 372.329 533.488 326.258 533.394 321.212C533.378 321.004 533.294 320.806 533.153 320.647C533.013 320.488 532.822 320.375 532.61 320.325C532.398 320.275 532.175 320.291 531.972 320.37C531.77 320.449 531.599 320.587 531.484 320.764C525.423 332.179 516.458 341.963 505.409 349.219C504.126 350.055 494.891 354.742 494.171 355.37C491.855 357.489 494.735 360.087 495.956 361.729C496.832 362.864 499.837 366.715 500.432 367.522C489.413 368.805 486.502 365.193 485.939 367.522C484.856 370.563 483.395 373.47 481.587 376.18C482.233 378.797 483.059 381.371 484.06 383.884C482.226 384.172 480.354 384.172 478.52 383.884C478.193 383.817 477.851 383.868 477.562 384.028C477.273 384.188 477.056 384.445 476.955 384.749C476.078 387.466 475.389 389.736 474.763 391.856C470.969 385.718 466.788 379.805 462.242 374.15C460.02 357.967 452.006 339.067 435.071 336.559C447.812 331.483 456.169 318.436 458.173 305.209C464.183 305.209 551.017 304.97 554.523 305.209C573.524 305.716 582.007 298.789 583.792 280.307C584.512 272.932 583.134 145.679 583.134 144.335ZM150.872 499.821C150.951 499.505 150.901 499.172 150.732 498.889C150.564 498.606 150.289 498.395 149.964 498.298C147.428 497.402 145.487 499.522 144.079 501.045C140.513 505.185 136.597 509.04 132.372 512.57C130.024 513.645 102.696 508.241 99.2843 507.226C97.4477 506.829 95.8499 505.755 94.8393 504.24C94.444 503.138 94.487 501.936 94.9603 500.862C95.4336 499.789 96.3041 498.919 97.4061 498.418C99.8165 497.014 101.601 497.134 108.362 495.939C115.124 494.745 121.822 493.581 133.592 483.011C135.232 481.513 136.759 479.907 138.163 478.204C140.117 482.348 143.407 485.789 147.553 488.027C153.109 490.38 159.313 490.956 165.24 489.669C162.109 495.641 153.47 514.302 151.31 520.005C149.588 519.348 147.835 518.751 146.114 518.273C148.052 512.21 149.641 506.05 150.872 499.821ZM425.774 336.32C421.371 336.5 416.998 337.1 412.721 338.112C398.7 339.623 384.603 340.401 370.493 340.441C368.427 328.498 369.053 330.707 368.521 327.393C368.302 325.96 367.989 323.989 369.085 323.362C384.079 316.973 399.668 311.18 414.599 304.94C417.729 307.12 417.98 306.851 418.262 306.672C418.396 306.534 418.47 306.352 418.47 306.164C418.47 305.976 418.396 305.794 418.262 305.656C417.04 304.479 415.755 303.363 414.411 302.312C402.394 292.062 394.024 278.495 390.465 263.497C390.423 263.319 390.309 263.164 390.148 263.066C389.986 262.968 389.79 262.935 389.604 262.975C389.417 263.015 389.254 263.123 389.152 263.277C389.049 263.431 389.014 263.618 389.056 263.796C391.708 279.393 400.166 293.555 412.877 303.686L369.711 320.705C368.463 321.054 367.366 321.776 366.58 322.765C364.42 322.205 362.468 321.077 360.946 319.51C352.807 313.27 349.552 317.54 339.034 325.482C338.017 326.214 337.055 327.012 336.154 327.871C330.594 323.154 325.053 318.416 319.532 313.658C318.123 311.688 305.289 269.469 300.03 252.51C304.095 243.108 310.654 234.877 319.062 228.624C320.035 231.456 321.26 234.203 322.725 236.835C325.073 238.984 328.109 237.939 331.051 237.253C330.241 238.857 329.773 240.6 329.676 242.379C329.58 244.158 329.856 245.937 330.488 247.613C332.704 252.353 336.165 256.466 340.536 259.556C351.242 268.514 350.71 268.275 351.336 268.275C351.625 268.261 351.899 268.147 352.106 267.955C352.313 267.763 352.44 267.505 352.463 267.23C353.527 256.809 357.033 253.943 366.925 250.629C372.335 248.944 376.912 245.431 379.795 240.751C382.678 236.071 383.667 230.547 382.576 225.22C389.119 225.267 395.638 224.464 401.953 222.831C402.251 222.767 402.511 222.593 402.675 222.347C402.839 222.101 402.895 221.803 402.829 221.518C402.829 221.01 402.61 220.413 402.454 219.786C448.125 240.955 475.953 306.91 439.109 331.424C435.102 333.983 430.546 335.656 425.774 336.32ZM436.292 339.724C444.337 341.366 451.067 347.815 455.45 359.161C476.36 413.055 427.621 478.353 367.113 493.521C366.737 489.908 364.671 468.948 364.264 467.395C363.964 466.025 363.138 464.811 361.948 463.992C358.097 461.961 351.492 464.201 347.986 466.171C344.644 468.288 341.657 470.875 339.128 473.845C339.128 474.8 343.51 492.804 344.449 496.477C306.403 504.066 266.858 500.827 230.725 487.161C236.297 465.067 243.685 434.821 245.751 425.445C267.287 431.835 297.557 431.238 297.87 431.208C297.97 431.183 298.059 431.126 298.122 431.048C298.185 430.97 298.22 430.874 298.22 430.775C298.22 430.676 298.185 430.58 298.122 430.502C298.059 430.424 297.97 430.367 297.87 430.342C280.497 424.818 265.503 410.576 255.674 390.213C240.555 359.788 209.189 360.147 196.981 375.285C179.326 397.14 176.477 460.737 176.196 468.411C175.1 470.322 168.808 482.056 166.429 486.833C147.647 491.102 142.295 480.861 140.009 476.472C139.634 475.726 139.822 477.696 145.644 458.08C148.774 459.543 171.031 467.037 171.062 464.828C171.312 439.449 177.761 379.076 195.228 365.193C207.749 355.399 234.826 357.101 246.815 365.581C254.437 372.217 260.672 380.17 265.19 389.019C275.238 409.591 292.549 424.848 311.769 428.67C336.404 426.61 364.984 389.168 373.154 365.223C388.242 346.979 413.128 336.529 436.292 339.724ZM485.281 461.155C485.323 461.333 485.437 461.488 485.598 461.586C485.76 461.684 485.955 461.717 486.142 461.678C486.329 461.638 486.492 461.529 486.594 461.375C486.697 461.221 486.731 461.035 486.69 460.857C484.718 451.242 479.146 442.942 475.64 433.985C469.567 418.668 473.981 402.216 479.115 386.66C481.404 387.068 483.771 386.776 485.876 385.824C487.598 384.54 486.22 382.361 484.28 376.867C485.875 374.565 487.129 372.063 488.005 369.432C492.897 370.537 497.985 370.598 502.905 369.612C503.096 369.565 503.273 369.476 503.421 369.352C503.569 369.228 503.684 369.073 503.758 368.898C503.831 368.723 503.86 368.535 503.842 368.347C503.825 368.16 503.761 367.979 503.656 367.82C501.559 365.193 496.018 357.997 495.736 357.46C495.455 356.922 495.736 356.982 496.644 356.594C511.607 350.099 523.876 339.037 531.516 325.154C531.891 334.917 533.112 371.254 532.768 372.717C527.904 376.074 522.776 379.069 517.429 381.674C517.196 381.797 517.006 381.983 516.884 382.209C516.761 382.435 516.712 382.691 516.742 382.943C516.773 383.196 516.881 383.435 517.053 383.628C517.226 383.822 517.455 383.963 517.711 384.033C522.14 385.477 526.433 387.275 530.545 389.407C531.109 390.273 529.137 397.11 528.792 398.872L525.662 399.469C525.351 399.547 525.083 399.736 524.914 399.997C524.745 400.259 524.687 400.572 524.754 400.873C525.568 406.157 527.415 419.175 527.415 419.175C518.431 411.203 518.494 406.784 516.553 406.605C516.36 406.582 516.165 406.606 515.984 406.674C515.804 406.741 515.644 406.851 515.52 406.993C500.801 423.284 492.537 443.982 492.168 465.485C492.203 465.646 492.295 465.791 492.429 465.895C492.563 465.999 492.731 466.056 492.904 466.056C493.076 466.056 493.244 465.999 493.378 465.895C493.512 465.791 493.604 465.646 493.639 465.485C494.818 445.139 502.731 425.675 516.24 409.89C519.353 415.005 523.44 419.522 528.292 423.206C528.498 423.381 528.758 423.49 529.033 423.516C529.308 423.543 529.585 423.486 529.824 423.353C530.063 423.221 530.253 423.02 530.365 422.779C530.478 422.539 530.508 422.27 530.451 422.012C530.451 422.012 528.198 407.471 527.321 401.559C548.638 397.947 566.951 380.659 573.117 358.624C573.117 370.895 572.679 401.32 572.679 401.619C572.679 403.56 572.679 405.411 570.864 406.277C565.729 407.997 560.505 409.462 555.212 410.666C554.995 410.72 554.798 410.829 554.64 410.982C554.483 411.134 554.371 411.324 554.317 411.531C554.262 411.738 554.267 411.956 554.331 412.161C554.395 412.366 554.516 412.551 554.68 412.696C556.151 413.831 564.603 420.429 567.389 422.549C567.389 422.549 563.57 429.506 561.629 432.94C558.455 430.138 555.827 426.823 553.866 423.146C553.739 422.937 553.544 422.774 553.31 422.681C553.076 422.588 552.817 422.571 552.572 422.632C552.327 422.693 552.109 422.829 551.953 423.019C551.797 423.209 551.71 423.442 551.706 423.684C552.583 443.629 559.281 441.031 553.741 447.57C534.646 470.471 531.297 477.875 510.731 483.668C514.862 465.753 529.011 458.498 534.677 445.569C537.808 438.493 537.119 430.641 539.592 423.535C541.314 418.603 544.128 414.082 547.844 410.28C551.56 406.478 556.091 403.483 561.128 401.5C561.311 401.44 561.461 401.314 561.547 401.149C561.632 400.984 561.644 400.793 561.582 400.619C561.52 400.445 561.388 400.301 561.214 400.22C561.041 400.139 560.841 400.126 560.659 400.186C554.099 402.393 548.31 406.295 543.938 411.456C539.566 416.617 536.783 422.835 535.898 429.417C534.552 438.583 534.834 443.091 528.824 451.123C522.187 459.931 511.325 467.724 507.819 484.414C502.376 485.707 496.804 486.448 491.198 486.624C490.54 481.279 487.097 478.144 484.655 478.025C482.401 474.263 458.642 439.777 449.878 432.223C459.57 415.586 464.026 396.635 462.712 377.643C466.468 382.928 472.885 392.841 474.012 394.782C463.087 434.97 480.93 441.001 485.281 461.155ZM435.916 462.469C435.915 462.258 435.851 462.052 435.732 461.875C435.612 461.698 435.442 461.558 435.241 461.47C435.041 461.382 434.818 461.35 434.599 461.379C434.38 461.408 434.175 461.496 434.007 461.633C430.004 465.423 426.369 469.55 423.145 473.964C421.301 472.938 419.571 471.738 417.98 470.381C425.545 464.11 432.406 457.106 438.452 449.481C471.696 487.52 470.099 486.415 471.038 485.698C471.112 485.651 471.175 485.589 471.223 485.518C471.271 485.446 471.303 485.366 471.318 485.282C471.332 485.199 471.329 485.113 471.308 485.03C471.287 484.948 471.248 484.87 471.195 484.802C469.004 481.638 446.685 454.945 439.892 447.451C443.118 443.199 446.066 438.761 448.719 434.164C461.241 445.838 480.68 476.562 482.495 479.458C480.767 481.829 479.959 484.701 480.21 487.579C476.256 488.633 472.1 488.806 468.065 488.087C463.275 487.191 445.37 478.801 433.631 478.473C434.383 475.218 435.572 465.276 436.01 462.469H435.916ZM353.965 466.261H354.497C356.939 465.723 360.758 464.917 361.666 467.276C362.135 468.888 371.589 557.954 371.589 560.701C371.639 561.133 371.59 561.572 371.444 561.984C371.298 562.397 371.059 562.774 370.744 563.089C362.605 560.103 342.571 480.891 341.788 474.173C344.943 470.451 349.179 467.699 353.965 466.261ZM20.6513 325.273C20.6513 318.436 15.8932 182.882 16.3627 177.985C17.1766 168.759 20.6512 164.609 28.3205 163.653C36.4279 162.161 112.119 160.1 120.382 159.891C120.57 162.877 120.727 164.967 120.789 165.355C121.136 167.704 122.311 169.871 124.12 171.499C125.929 173.127 128.265 174.119 130.744 174.313C130.744 174.014 128.678 174.313 193.35 174.522C193.35 183.837 193.944 227.609 193.976 229.669C175.57 230.326 156.6 231.042 152.969 231.371C152.468 231.371 152.03 232.236 152.218 232.654C157.664 245.493 181.924 297.625 188.717 311.001C189.35 312.521 190.439 313.829 191.847 314.763C192.724 316.017 193.757 317.42 194.977 318.824C185.054 326.378 181.486 334.738 175.726 346.979C149.213 347.517 41.7495 349.637 39.3391 349.547C32.6403 349.279 27.9135 347.427 24.9711 343.904C20.4947 338.828 20.6826 331.901 20.6513 325.273ZM382.795 206.021C383.453 208.291 385.926 209.515 389.745 209.604C396.318 209.336 399.135 214.74 400.325 220.95C393.926 222.143 387.435 222.832 380.917 223.01C380.728 223.012 380.543 223.056 380.375 223.138C380.207 223.22 380.061 223.338 379.949 223.482C379.837 223.627 379.761 223.794 379.728 223.971C379.695 224.149 379.706 224.331 379.759 224.503C380.758 227.912 380.768 231.515 379.787 234.928C378.805 238.341 376.87 241.436 374.187 243.881C365.766 251.614 352.275 247.344 350.303 265.169C347.486 262.841 337.062 254.391 334.933 251.913C331.271 247.882 329.799 241.194 333.556 236.984C341.599 235.73 349.729 235.041 357.878 234.924C358.061 234.924 358.236 234.854 358.365 234.731C358.494 234.608 358.567 234.441 358.567 234.267C358.567 234.093 358.494 233.926 358.365 233.802C358.236 233.679 358.061 233.61 357.878 233.61C348.502 232.976 339.079 233.619 329.893 235.521C326.387 236.446 324.666 237.103 323.101 233.968C322.318 232.386 317.654 218.83 316.84 216.322C315.4 213.068 316.276 214.053 318.906 212.501C321.482 214.577 324.374 216.269 327.483 217.517C327.483 217.875 329.111 222.622 329.361 223.488C329.467 224.206 329.844 224.862 330.42 225.334C330.995 225.807 331.732 226.063 332.491 226.056C339.791 226.696 347.146 225.676 353.953 223.081C360.76 220.486 366.825 216.39 371.651 211.127C371.747 211.002 371.791 210.847 371.774 210.693C371.758 210.539 371.682 210.396 371.561 210.292C371.441 210.188 371.284 210.131 371.121 210.13C370.959 210.13 370.802 210.187 370.681 210.291C365.833 214.965 360.008 218.614 353.585 221.001C347.162 223.388 340.285 224.459 333.399 224.145C331.208 223.996 331.49 224.444 329.643 218.174C338.095 220.443 340.223 217.367 337.218 220.204C337.12 220.315 337.066 220.456 337.065 220.602C337.064 220.747 337.116 220.889 337.212 221.002C337.308 221.115 337.443 221.192 337.592 221.221C337.742 221.25 337.897 221.228 338.032 221.159C349.418 213.039 357.725 201.605 361.697 188.585C361.726 188.5 361.736 188.411 361.728 188.323C361.72 188.235 361.693 188.149 361.649 188.071C361.605 187.993 361.545 187.924 361.473 187.869C361.401 187.813 361.317 187.772 361.228 187.749C359.6 187.211 360.695 190.286 353.057 202.2C349.927 190.257 352.024 177.627 348.644 165.624C348.598 165.454 348.483 165.308 348.325 165.218C348.166 165.129 347.977 165.103 347.799 165.146C347.62 165.19 347.467 165.299 347.373 165.45C347.279 165.602 347.252 165.782 347.298 165.952C347.846 168.492 348.202 171.067 348.362 173.656C341.694 167.356 327.608 157.294 316.496 159.593C314.102 159.663 311.833 160.63 310.181 162.284C308.529 163.938 307.626 166.146 307.668 168.431C304.976 164.967 306.854 159.682 309.296 156.756C315.744 148.725 327.201 144.813 338.627 141.827C348.738 139.26 362.261 139.618 369.93 148.336C373.257 152.687 375.66 157.617 377.004 162.847C381.003 174.634 383.791 186.763 385.331 199.065C385.45 199.561 385.426 200.078 385.26 200.562C385.095 201.046 384.795 201.478 384.392 201.812C383.767 202.322 383.291 202.978 383.011 203.716C382.732 204.454 382.657 205.248 382.795 206.021ZM191.002 310.284C188.06 304.313 158.979 242.806 154.346 232.654C164.708 232.654 281.624 228.564 283.659 228.504C287.634 240.686 310.798 314.255 310.798 314.883C310.798 314.883 283.127 315.539 268.195 316.107C242.996 303.984 219.676 305.298 202.709 313.867C193.131 313.479 192.692 313.658 191.002 310.284ZM309.953 186.435C309.515 177.477 309.953 171.237 311.425 170.61C316.809 168.281 326.857 167.624 338.032 170.998C339.441 171.446 343.948 173.686 348.487 175.507C348.988 185.061 348.487 195.183 351.618 204.439C348.851 209.067 345.296 213.224 341.1 216.74C322.161 219.129 310.798 204.678 309.891 186.435H309.953ZM338.689 364.984C337.938 366.357 350.678 375.494 352.056 376.479C356.563 380.539 351.054 382.749 346.484 378.838C321.441 357.37 300.093 332.767 272.265 318.077C288.479 317.57 308.545 317.002 311.988 316.973C315.463 320.167 355.812 356.206 366.236 364.745C337.124 364.954 338.971 364.506 338.627 364.984H338.689ZM369.429 364.566C369.116 364.297 316.214 318.704 314.179 316.435C312.99 314.524 291.046 243.493 286.007 229.191C289.098 231.202 291.392 234.147 292.518 237.551C294.396 242.657 315.713 310.732 315.807 311.061C316.063 312.714 316.838 314.255 318.029 315.48C326.262 323.034 361.196 353.25 372.559 362.207C371.902 362.983 371.245 363.759 370.618 364.566H369.429ZM367.144 335.872C361.697 335.454 359.975 334.857 358.629 336.44C358.191 337.097 356.939 338.56 355.343 338.231C355.066 338.17 354.805 338.054 354.577 337.892C354.349 337.73 354.159 337.525 354.018 337.29C353.877 337.054 353.788 336.794 353.758 336.524C353.727 336.255 353.755 335.982 353.84 335.723C355.374 334.35 356.97 333.155 358.41 331.692C358.487 331.589 358.526 331.464 358.52 331.338C358.514 331.211 358.464 331.09 358.377 330.994C358.291 330.898 358.173 330.832 358.043 330.807C357.913 330.782 357.778 330.8 357.659 330.856C356.063 331.842 354.529 333.424 352.713 334.469C352.563 334.471 352.416 334.504 352.28 334.566C352.145 334.628 352.026 334.717 351.931 334.827C351.556 334.973 351.15 335.033 350.747 335.004C350.343 334.976 349.952 334.859 349.604 334.662C349.255 334.466 348.959 334.195 348.738 333.872C348.518 333.548 348.378 333.18 348.331 332.797C348.331 330.408 351.023 328.826 352.588 327.064C353.214 326.467 352.275 325.572 351.618 326.139C349.94 327.489 348.381 328.967 346.953 330.558C345.15 331.105 343.309 331.534 341.444 331.842C340.599 331.842 341.444 332.349 337.75 329.334C341.601 325.888 345.795 322.808 350.272 320.137C357.878 315.36 359.287 323.631 366.142 324.586C366.136 328.369 366.471 332.145 367.144 335.872ZM374.187 360.475L342.665 333.603C343.808 333.388 344.937 333.109 346.046 332.767C346.02 333.416 346.153 334.061 346.435 334.651C346.716 335.242 347.137 335.762 347.666 336.171C348.194 336.579 348.815 336.865 349.479 337.005C350.143 337.145 350.833 337.135 351.492 336.977C351.618 337.61 351.898 338.207 352.31 338.717C352.723 339.227 353.256 339.637 353.866 339.914C354.477 340.19 355.147 340.325 355.822 340.308C356.498 340.291 357.159 340.121 357.753 339.814C362.073 337.933 357.753 337.216 364.733 337.813C365.641 337.813 366.612 337.992 367.551 338.022C367.832 339.426 368.114 340.709 368.427 341.934C368.502 342.178 368.66 342.392 368.874 342.543C369.089 342.694 369.35 342.773 369.617 342.77C425.586 341.635 398.102 334.26 374.124 360.475H374.187ZM299.06 249.285C295.523 237.969 293.676 228.833 286.539 226.504C286.539 226.862 289.199 226.116 196.543 229.49C196.543 214.949 195.885 179.777 195.791 174.432H308.013C307.136 187.36 308.013 201.304 317.403 210.918C316.276 211.336 314.273 212.232 313.804 212.978C314.958 217.804 316.507 222.536 318.436 227.131C310.038 232.784 303.319 240.417 298.935 249.285H299.06ZM286.194 156.995C286.194 152.815 285.193 130.332 284.974 126.212H292.956C292.956 130.452 293.551 152.845 293.738 156.965C291.234 156.906 288.699 156.935 286.194 156.995ZM240.335 157.891C240.367 149.77 239.271 81.097 239.115 72.1397H247.097C247.097 94.8315 247.786 151.591 247.911 157.771L240.335 157.891ZM190.939 83.6647H198.953C198.953 103.281 199.61 152.815 199.767 158.697H192.192C192.223 151.352 191.127 91.8457 190.939 83.6647ZM122.981 164.042C122.542 161.504 118.911 81.9927 117.44 51.5379C117.096 42.1626 119.694 30.6375 126.299 25.293C126.299 46.1933 129.116 161.534 129.742 171.984C127.9 171.477 126.264 170.444 125.056 169.024C123.847 167.604 123.123 165.865 122.981 164.042ZM410.185 139.23C409.928 137.281 410.417 135.309 411.563 133.676C414.013 131.836 416.644 130.226 419.42 128.869C416.289 134.244 417.103 132.751 418.762 227.101C416.18 225.224 413.495 223.48 410.718 221.876C410.405 206.828 410.248 152.128 410.279 139.23H410.185ZM437.544 172.402C438.999 170.432 440.932 168.828 443.178 167.726C445.423 166.624 447.915 166.056 450.441 166.072C463.181 166.072 467.814 180.523 470.318 192.287C472.51 201.513 472.666 212.381 479.709 219.905C512.452 248.21 514.925 208.709 534.834 210.231C541.094 210.918 545.258 216.382 549.734 220.323C551.648 222.373 554.332 223.62 557.204 223.794C560.076 223.967 562.903 223.053 565.072 221.249V263.677C557.372 263.677 459.582 262.99 448.845 263.109C446.231 257.891 443.152 252.896 439.642 248.18C440.017 244.568 437.701 175.626 437.638 172.402H437.544ZM450.065 265.14C464.465 265.349 555.838 265.587 565.323 265.587C565.336 266.725 565.41 267.861 565.542 268.991C565.565 269.232 565.68 269.456 565.864 269.621C566.049 269.786 566.291 269.881 566.544 269.887C568.391 269.887 567.545 272.604 567.232 191.63C567.232 191.432 567.15 191.242 567.003 191.102C566.856 190.962 566.657 190.884 566.45 190.884C566.242 190.884 566.043 190.962 565.896 191.102C565.75 191.242 565.667 191.432 565.667 191.63C565.667 196.945 565.323 214.501 565.292 217.964C564.573 219.044 563.597 219.945 562.443 220.595C561.289 221.245 559.99 221.625 558.652 221.704C557.314 221.782 555.976 221.558 554.747 221.048C553.518 220.538 552.433 219.758 551.581 218.771C542.534 209.813 533.582 202.349 520.497 213.874C509.791 224.414 503.906 233.311 489.194 224.205C483.237 221.177 478.747 216.059 476.673 209.933C471.727 193.003 473.104 166.878 452.194 163.415C449.398 163.142 446.575 163.528 443.972 164.537C441.369 165.547 439.065 167.151 437.262 169.207C437.262 164.669 436.918 160.25 436.73 155.652C436.73 155.462 436.651 155.279 436.51 155.145C436.369 155.01 436.178 154.935 435.979 154.935C435.78 154.935 435.589 155.01 435.448 155.145C435.307 155.279 435.228 155.462 435.228 155.652C435.228 160.608 436.855 229.818 437.356 245.016C432.533 238.994 426.985 233.533 420.828 228.743C420.828 217.367 419.764 143.499 419.639 138.931C419.451 130.631 422.926 125.824 430.939 123.823C437.513 122.092 555.713 120.36 566.951 121.823C574.401 122.719 578.658 129.675 579.722 135.707C581.037 143.201 581.413 267.08 581.444 268.723C581.694 283.353 579.879 300.043 563.914 302.103C560.314 302.581 471.258 302.79 458.329 302.671C458.729 289.719 455.919 276.86 450.128 265.14H450.065ZM358.41 32.7275C362.167 38.9977 360.038 37.2659 362.699 140.394C349.739 134.811 331.396 139.946 318.875 146.366V57.8976C318.875 57.2108 320.502 57.4198 309.484 57.4198C308.795 57.4198 308.858 51.2692 311.174 151.322C309.296 152.939 307.663 154.799 306.322 156.846H295.804C295.804 152.964 294.615 125.436 294.49 125.197C294.453 125.041 294.362 124.903 294.231 124.805C294.099 124.707 293.936 124.656 293.77 124.659C290.387 124.551 287.002 124.621 283.628 124.868C283.527 124.933 283.448 125.024 283.398 125.129C283.349 125.234 283.33 125.351 283.346 125.465C283.346 128.451 283.909 152.696 284.128 156.995L272.327 157.234C272.922 106.237 273.141 108.924 272.327 108.865C263.844 109.193 263.656 109.044 263.656 109.641V157.413L249.883 157.682C249.883 151.024 248.819 75.7823 248.599 71.4231C248.609 71.2267 248.54 71.0343 248.406 70.8847C248.272 70.7351 248.084 70.6394 247.88 70.6169C247.88 70.6169 238.082 70.6169 237.769 70.9155C236.861 71.6022 238.27 154.517 238.27 157.921L223.401 158.189V113.612C223.29 113.57 223.167 113.57 223.056 113.612C214.417 113.612 214.511 113.612 214.511 114.269V158.369L201.802 158.727C200.925 81.6344 200.205 83.0377 200.518 83.0377C200.519 82.8464 200.447 82.6614 200.314 82.5182C200.181 82.3749 199.997 82.2835 199.798 82.2614C199.798 82.2614 190.063 82.2614 189.75 82.5003C188.686 83.1273 190.188 153.651 190.188 158.966L172.971 159.264C173.065 42.909 173.41 48.2535 172.596 48.2535L164.927 48.5222C164.394 48.5222 164.582 41.3863 164.582 159.384C151.685 159.623 152.061 159.384 151.873 159.861C151.813 159.955 151.78 160.061 151.776 160.17C151.772 160.28 151.799 160.388 151.852 160.485C151.906 160.581 151.986 160.663 152.083 160.721C152.18 160.779 152.291 160.812 152.405 160.817C171.406 160.817 286.476 159.712 305.227 159.175C303.348 163.743 303.693 168.789 308.044 171.446V172.103C289.951 172.611 135.126 172.103 132.34 172.103C132.34 168.192 128.834 31.5929 128.803 23.9494C150.496 23.9494 341.663 24.2181 346.64 24.9944C349.08 25.3713 351.402 26.2607 353.437 27.598C355.473 28.9354 357.171 30.6875 358.41 32.7275ZM17.2079 166.788C13.6081 171.745 13.4203 178.194 13.4203 184.434C13.4203 185.808 17.8027 332.767 18.46 336.35C18.8344 338.95 19.7879 341.444 21.2565 343.664C22.7251 345.883 24.6748 347.777 26.9744 349.219C23.295 349.042 19.6979 348.116 16.4253 346.502C9.47609 342.859 6.84664 335.365 5.90755 331.215C4.24849 323.75 2.05728 195.541 2.43292 188.913C2.2138 177.925 6.12667 171.984 17.1453 166.788H17.2079ZM486.752 504.449C499.282 503.615 511.556 500.663 523.001 495.73C531.14 492.147 541.282 486.474 545.477 481.966C546.134 496.059 543.129 505.165 527.947 511.824C507.851 520.781 460.176 531.769 439.579 518.661C437.732 516.959 433.318 504.031 431.565 498.059C440.549 503.762 466.719 505.972 486.69 504.449H486.752ZM203.648 543.562C201.019 543.353 199.767 545.861 198.89 547.683C191.565 562.612 191.659 563.567 184.209 564.045C181.862 564.194 159.762 565.926 158.134 565.926C152.437 566.314 149.275 562.582 153.313 558.013C155.615 556.357 158.17 555.048 160.889 554.132C169.591 550.28 183.364 540.099 186.4 527.499C189.543 531.02 193.829 533.437 198.577 534.366C204.456 534.968 210.386 533.809 215.544 531.052C214.354 537.501 211.599 557.595 211.255 563.895C209.425 563.712 207.585 563.633 205.746 563.657C205.714 561.955 205.12 543.682 203.586 543.562H203.648ZM215.168 528.186C211.1 530.93 206.22 532.363 201.238 532.276C198.603 532.087 196.037 531.382 193.699 530.206C191.362 529.03 189.304 527.407 187.653 525.439C187.653 524.513 187.308 514.511 187.402 509.136C197.545 509.899 207.725 510.089 217.891 509.704C217.39 512.331 215.794 522.99 215.105 528.186H215.168Z" fill="#F7F7F7"/>
<path d="M526.789 142.783C526.966 142.749 527.125 142.657 527.239 142.524C527.353 142.39 527.416 142.224 527.416 142.051C527.416 141.879 527.353 141.712 527.239 141.579C527.125 141.446 526.966 141.354 526.789 141.32H521.53C482.182 142.484 483.466 142.454 483.497 143.499C483.528 144.544 482.307 144.783 526.789 142.783ZM528.104 149.77C521.092 149.77 493.67 150.128 486.627 150.665C486.38 150.706 486.156 150.829 485.995 151.012C485.833 151.195 485.745 151.426 485.745 151.665C485.745 151.905 485.833 152.136 485.995 152.319C486.156 152.502 486.38 152.625 486.627 152.666C493.796 152.666 521.06 151.322 528.135 151.053C528.288 151.018 528.424 150.934 528.52 150.815C528.616 150.696 528.666 150.55 528.663 150.399C528.659 150.249 528.602 150.105 528.5 149.99C528.398 149.876 528.258 149.798 528.104 149.77ZM521.217 160.757C516.334 160.936 500.651 160.757 485.688 160.757C485.356 160.757 485.038 160.883 484.803 161.107C484.568 161.331 484.436 161.635 484.436 161.951C484.436 162.268 484.568 162.572 484.803 162.796C485.038 163.02 485.356 163.146 485.688 163.146C488.818 163.355 518.181 162.19 521.248 162.071C521.431 162.067 521.604 161.994 521.731 161.868C521.857 161.742 521.925 161.573 521.921 161.399C521.917 161.225 521.841 161.059 521.709 160.939C521.576 160.819 521.4 160.753 521.217 160.757ZM420.359 11.5584C416.691 12.4176 413.336 14.2099 410.651 16.7442C407.966 19.2786 406.053 22.4601 405.114 25.9498C401.64 38.6393 413.691 52.4634 427.559 50.2539C430.589 49.6436 433.457 48.4496 435.987 46.7451C438.517 45.0406 440.655 42.8615 442.271 40.3412C443.85 37.5596 444.746 34.4724 444.893 31.3124C445.039 28.1523 444.432 25.0017 443.116 22.0981C441.238 16.9626 435.666 8.75177 420.359 11.5584ZM427.934 36.7284C421.893 40.6995 414.818 33.4739 417.604 29.0251C422.613 21.083 431.503 27.0844 431.722 30.0701C431.718 31.3958 431.367 32.6996 430.7 33.8625C430.033 35.0255 429.071 36.0108 427.903 36.7284H427.934ZM427.559 23.1432C425.446 22.5091 423.172 22.5608 421.094 23.2901C419.015 24.0194 417.249 25.3852 416.07 27.174C415.107 28.7843 414.744 30.6582 415.04 32.4906C415.335 34.323 416.272 36.006 417.698 37.2658C418.834 38.3059 420.231 39.0505 421.755 39.4285C423.279 39.8065 424.879 39.8052 426.402 39.4247C427.926 39.0443 429.321 38.2974 430.455 37.2555C431.589 36.2136 432.424 34.9116 432.88 33.4739C435.551 35.1451 438.539 36.3014 441.676 36.8777C440.568 39.4569 438.868 41.7665 436.701 43.6369C434.534 45.5073 431.956 46.8909 429.155 47.6862C416.634 51.1497 405.49 40.3113 406.899 28.6071C407.311 25.8812 408.367 23.2803 409.988 21.0008C411.608 18.7212 413.75 16.8225 416.253 15.448C418.755 14.0736 421.552 13.2592 424.432 13.0664C427.312 12.8736 430.201 13.3074 432.88 14.3352C430.401 16.8337 428.568 19.8497 427.527 23.1432H427.559Z" fill="#F7F7F7"/>
<path d="M392.186 62.8242C399.824 62.436 539.686 61.4209 549.891 58.5247C557.748 57.1512 560.44 53.6877 560.033 46.1338C560.033 43.6257 560.471 14.8728 559.657 9.76711C558.937 3.46715 555.4 0.48138 547.95 0.0932308C541.689 -0.474065 396.6 1.67569 389.745 3.079C384.173 4.12402 380.354 6.06476 379.602 12.0363C379.258 13.8576 380.761 47.5669 380.948 50.8513C381.387 57.9574 385.112 62.1673 392.186 62.8242ZM404.394 60.7939C402.551 60.582 400.781 59.9818 399.211 59.0368C397.64 58.0918 396.31 56.8256 395.317 55.3299C393.11 51.7052 391.974 47.578 392.03 43.3868C391.685 38.311 390.684 19.5007 390.558 14.9623C390.558 13.1112 390.558 6.96049 395.317 4.75103C402.673 4.03444 539.717 2.09369 545.571 2.27284C548.701 2.27284 552.927 2.5117 555.306 4.81074C558.812 8.18466 557.685 13.768 557.904 45.865C558.593 54.046 555.337 55.8375 547.324 56.9422C540.124 57.9872 405.647 60.7939 404.457 60.7939H404.394ZM388.43 11.1704C388.023 13.8576 389.682 39.5352 389.839 42.939C390.214 51.3887 392.75 57.3901 397.758 60.8536H394.628C386.99 60.8536 383.515 57.3602 383.171 49.9257C382.983 45.6859 381.543 14.0965 381.856 12.305C382.514 6.87092 386.364 5.67661 391.466 5.07946C389.884 6.7965 388.852 8.9105 388.493 11.1704H388.43Z" fill="#F7F7F7"/>
<path d="M462.305 18.9033C463.463 18.9033 499.399 18.0374 499.086 18.0374C499.247 18.0048 499.392 17.9203 499.496 17.798C499.6 17.6757 499.656 17.523 499.656 17.3656C499.656 17.2082 499.6 17.0556 499.496 16.9333C499.392 16.811 499.247 16.7265 499.086 16.6939C496.425 16.6939 465.404 16.1863 462.242 16.6939C462.001 16.7772 461.794 16.9308 461.649 17.133C461.505 17.3352 461.431 17.5756 461.438 17.8201C461.445 18.0647 461.532 18.3009 461.688 18.4954C461.843 18.6898 462.059 18.8325 462.305 18.9033ZM510.104 28.2786C505.597 28.6966 460.333 27.2336 460.02 29.4132C460.02 29.8312 460.427 30.1597 460.74 30.2194C464.684 30.6672 509.948 29.7417 510.261 29.7118C510.36 29.702 510.455 29.6738 510.543 29.6287C510.63 29.5836 510.707 29.5226 510.769 29.4491C510.832 29.3757 510.879 29.2912 510.907 29.2005C510.935 29.1098 510.944 29.0147 510.934 28.9206C510.924 28.8265 510.894 28.7352 510.847 28.652C510.8 28.5688 510.736 28.4953 510.659 28.4357C510.582 28.3761 510.493 28.3316 510.398 28.3046C510.303 28.2777 510.203 28.2688 510.104 28.2786ZM509.197 39.744C501.465 39.744 462.493 39.5648 460.458 39.8933C460.258 39.9439 460.081 40.0562 459.954 40.2128C459.828 40.3694 459.759 40.5615 459.759 40.7591C459.759 40.9568 459.828 41.1488 459.954 41.3054C460.081 41.462 460.258 41.5744 460.458 41.625C462.618 41.9534 506.035 40.998 509.228 40.9084C509.366 40.8751 509.487 40.7982 509.573 40.6902C509.659 40.5823 509.704 40.4497 509.7 40.3143C509.696 40.1789 509.645 40.0486 509.553 39.945C509.462 39.8414 509.336 39.7705 509.197 39.744ZM66.6353 231.012C87.8274 229.37 99.0651 203.334 82.5998 188.883C82.005 188.375 83.1319 187.241 65.7901 211.157C44.8171 192.197 45.944 192.914 45.4745 193.242C28.8839 208.858 45.318 232.684 66.6353 231.012Z" fill="#F7F7F7"/>
<path d="M64.3188 201.364C64.9136 201.991 64.6318 202.08 78.8121 179.269C78.8461 179.218 78.8691 179.162 78.8796 179.102C78.8901 179.043 78.888 178.982 78.8734 178.924C78.8588 178.865 78.832 178.81 78.7946 178.762C78.7571 178.713 78.7099 178.672 78.6556 178.642C73.655 176.132 67.9258 175.266 62.3566 176.178C56.7874 177.09 51.6894 179.73 47.8535 183.688C47.4778 184.136 46.9144 183.27 64.3188 201.364ZM31.6072 311.986C32.4101 311.981 33.1935 311.75 33.8588 311.321C34.5241 310.892 35.0416 310.286 35.3461 309.577C35.6506 308.868 35.7286 308.09 35.5701 307.339C35.4117 306.588 35.024 305.899 34.4558 305.358C36.0209 302.939 46.1631 287.025 49.1369 282.726C49.9076 283.066 50.7677 283.176 51.6053 283.043C52.4428 282.91 53.2189 282.539 53.8323 281.979L68.2943 292.609C68.0585 293.274 68.0164 293.988 68.1726 294.675C68.3288 295.361 68.6774 295.994 69.1812 296.507C69.6849 297.019 70.3251 297.391 71.0333 297.584C71.7415 297.777 72.4913 297.782 73.2026 297.601C73.914 297.419 74.5603 297.056 75.0727 296.552C75.585 296.047 75.9442 295.419 76.1119 294.735C76.2796 294.051 76.2496 293.337 76.025 292.668C75.8004 291.999 75.3897 291.4 74.8366 290.937L79.9703 284.487C80.8891 284.888 81.9308 284.952 82.8956 284.665C83.8603 284.379 84.6802 283.762 85.1979 282.935L100.161 287.772C100.08 288.414 100.169 289.065 100.419 289.666C100.669 290.268 101.073 290.8 101.593 291.214C102.114 291.629 102.735 291.913 103.4 292.04C104.065 292.167 104.752 292.134 105.4 291.944C106.048 291.753 106.636 291.411 107.11 290.948C107.584 290.486 107.93 289.918 108.115 289.296C108.301 288.674 108.32 288.017 108.172 287.386C108.024 286.755 107.713 286.169 107.266 285.682C108.519 281.412 119.349 249.852 120.445 246.867C121.496 246.779 122.472 246.309 123.168 245.553C126.142 247.792 135.064 254.152 137.943 256.003C137.779 256.621 137.776 257.268 137.936 257.887C138.096 258.506 138.414 259.078 138.861 259.553C139.307 260.027 139.87 260.389 140.498 260.607C141.126 260.824 141.801 260.891 142.463 260.801C143.125 260.711 143.753 260.467 144.292 260.09C144.832 259.713 145.265 259.215 145.555 258.641C145.845 258.066 145.982 257.432 145.953 256.795C145.925 256.158 145.733 255.537 145.394 254.988C153.72 242.328 154.096 242.537 153.219 241.97C153.054 241.872 152.857 241.837 152.667 241.87C152.476 241.903 152.305 242.002 152.186 242.149C150.715 244.179 143.766 253.495 143.766 253.495C143.025 253.147 142.194 253.016 141.375 253.117C140.557 253.217 139.788 253.546 139.164 254.062C136.253 252.122 127.019 245.822 124.076 243.642C124.202 242.953 124.13 242.244 123.868 241.591C123.607 240.938 123.165 240.364 122.589 239.93C122.014 239.497 121.326 239.22 120.599 239.128C119.873 239.037 119.133 239.134 118.46 239.411C117.786 239.687 117.203 240.132 116.773 240.698C116.342 241.264 116.08 241.931 116.014 242.627C115.948 243.324 116.081 244.024 116.398 244.655C116.715 245.286 117.205 245.823 117.816 246.21C115.124 253.196 107.298 277.381 105.294 284.428C104.542 284.243 103.751 284.262 103.009 284.484C102.268 284.705 101.607 285.12 101.1 285.682C97.9695 284.666 88.5786 281.949 85.73 281.084C85.73 280.062 85.3046 279.082 84.5473 278.36C83.79 277.638 82.7629 277.232 81.692 277.232C80.621 277.232 79.5939 277.638 78.8366 278.36C78.0793 279.082 77.6539 280.062 77.6539 281.084C77.6607 281.936 77.9572 282.764 78.4991 283.442L72.8958 290.101C72.3591 289.988 71.8039 289.983 71.2651 290.086C70.7263 290.189 70.2157 290.397 69.7655 290.698L54.834 279.919C54.997 278.995 54.801 278.046 54.2829 277.249C53.7648 276.453 52.96 275.864 52.0194 275.593C51.0788 275.322 50.0669 275.388 49.1732 275.777C48.2796 276.167 47.5655 276.854 47.1648 277.71C46.8534 278.325 46.7266 279.01 46.7985 279.69C46.8703 280.37 47.1379 281.018 47.5717 281.561C44.6293 285.771 33.9549 302.044 32.4211 304.402C31.8593 304.268 31.2736 304.25 30.704 304.35C30.1343 304.451 29.594 304.667 29.1196 304.984C28.6453 305.301 28.248 305.712 27.9548 306.188C27.6616 306.665 27.4793 307.196 27.4203 307.746C27.3613 308.295 27.427 308.851 27.6129 309.374C27.7989 309.897 28.1006 310.376 28.4978 310.779C28.8949 311.181 29.3782 311.497 29.9147 311.705C30.4512 311.914 31.0284 312.009 31.6072 311.986ZM86.0744 322.556C85.8419 322.556 85.619 322.644 85.4546 322.801C85.2902 322.957 85.1979 323.17 85.1979 323.392C85.1979 323.614 85.2902 323.826 85.4546 323.983C85.619 324.14 85.8419 324.228 86.0744 324.228C91.5524 324.228 155.849 321.839 158.071 321.809C158.217 321.778 158.348 321.701 158.441 321.59C158.535 321.478 158.586 321.34 158.586 321.197C158.586 321.055 158.535 320.916 158.441 320.805C158.348 320.694 158.217 320.616 158.071 320.585C149.338 320.615 91.6776 321.959 86.0744 322.556ZM113.59 301.208C113.789 301.208 113.98 301.132 114.121 300.998C114.262 300.863 114.341 300.681 114.341 300.491C114.341 300.301 114.262 300.119 114.121 299.984C113.98 299.85 113.789 299.774 113.59 299.774C111.117 299.774 102.164 299.267 100.067 299.356C99.7015 299.356 99.3512 299.495 99.0929 299.741C98.8346 299.988 98.6895 300.322 98.6895 300.67C98.6895 301.019 98.8346 301.353 99.0929 301.599C99.3512 301.845 99.7015 301.984 100.067 301.984C102.133 302.223 110.992 301.417 113.59 301.208ZM80.1268 305.029H66.6352C66.3435 305.042 66.0608 305.13 65.8168 305.283C65.5728 305.436 65.3765 305.649 65.2484 305.9C65.1204 306.15 65.0653 306.429 65.089 306.706C65.1127 306.984 65.2143 307.25 65.3831 307.478C66.2283 308.672 66.8857 307.746 80.1894 306.672C80.3546 306.596 80.493 306.477 80.5878 306.327C80.6825 306.178 80.7295 306.005 80.7228 305.831C80.7162 305.656 80.6562 305.488 80.5503 305.345C80.4445 305.203 80.2972 305.093 80.1268 305.029ZM26.7553 320.973C27.4126 320.973 36.9287 319.988 39.026 319.898C39.2585 319.898 39.4814 319.81 39.6458 319.654C39.8102 319.497 39.9025 319.284 39.9025 319.062C39.9025 318.841 39.8102 318.628 39.6458 318.471C39.4814 318.315 39.2585 318.226 39.026 318.226C37.8052 318.226 27.2248 318.644 26.5048 318.973C26.3137 319.083 26.1599 319.243 26.0618 319.434C25.9638 319.625 25.9257 319.839 25.9522 320.05C25.9786 320.262 26.0685 320.461 26.2109 320.625C26.3534 320.789 26.5424 320.91 26.7553 320.973Z" fill="#F7F7F7"/>
<path d="M137.224 269.2H137.724C151.028 268.065 150.559 268.931 151.122 268.334C151.226 268.217 151.294 268.075 151.319 267.923C151.344 267.772 151.325 267.616 151.263 267.475C151.202 267.333 151.101 267.21 150.971 267.119C150.841 267.028 150.688 266.974 150.527 266.961C145.863 266.961 141.481 266.572 137.286 266.752C135.502 266.781 135.658 269.2 137.224 269.2ZM67.2301 243.134C66.8897 243.134 66.5633 243.263 66.3226 243.493C66.0819 243.722 65.9467 244.034 65.9467 244.358C65.9467 244.683 66.0819 244.994 66.3226 245.224C66.5633 245.454 66.8897 245.583 67.2301 245.583C71.7064 245.583 89.1422 244.06 93.3681 243.642C93.5683 243.605 93.7489 243.503 93.8788 243.353C94.0086 243.203 94.0797 243.015 94.0797 242.821C94.0797 242.626 94.0086 242.438 93.8788 242.288C93.7489 242.138 93.5683 242.036 93.3681 242C89.017 242.328 71.5499 242.776 67.2301 243.134ZM65.1015 250.121C64.8497 250.18 64.6294 250.326 64.482 250.529C64.3345 250.733 64.2701 250.981 64.3009 251.227C64.3316 251.472 64.4554 251.699 64.649 251.864C64.8425 252.028 65.0925 252.12 65.3519 252.121C70.2978 252.121 89.7057 250.449 94.5889 250.419C94.8048 250.419 95.0118 250.338 95.1644 250.192C95.317 250.047 95.4028 249.849 95.4028 249.643C95.4028 249.437 95.317 249.24 95.1644 249.094C95.0118 248.949 94.8048 248.867 94.5889 248.867C84.7415 248.66 74.8906 249.079 65.1015 250.121ZM92.0847 254.898C83.8927 254.786 75.7003 255.095 67.5432 255.824C66.0406 256.003 65.978 258.182 67.5432 258.182C70.3291 258.182 85.5424 256.69 92.116 256.451C92.2229 256.449 92.3283 256.427 92.4262 256.386C92.5242 256.345 92.6128 256.286 92.6869 256.213C92.761 256.139 92.8192 256.053 92.8582 255.958C92.8972 255.863 92.9163 255.761 92.9142 255.659C92.9122 255.558 92.8891 255.457 92.8463 255.364C92.8035 255.27 92.7418 255.186 92.6648 255.115C92.5877 255.044 92.4969 254.989 92.3973 254.951C92.2978 254.914 92.1916 254.896 92.0847 254.898ZM102.383 190.585C103.917 190.585 119.537 189.032 122.605 188.823C122.821 188.823 123.028 188.741 123.181 188.596C123.333 188.45 123.419 188.253 123.419 188.047C123.419 187.841 123.333 187.643 123.181 187.498C123.028 187.352 122.821 187.271 122.605 187.271C121.071 187.271 104.324 187.748 102.477 187.868C100.63 187.987 100.63 190.585 102.383 190.585ZM105.608 196.616C110.522 196.616 129.68 194.884 134.532 194.586C134.708 194.551 134.867 194.46 134.982 194.327C135.096 194.193 135.158 194.026 135.158 193.854C135.158 193.682 135.096 193.515 134.982 193.382C134.867 193.248 134.708 193.157 134.532 193.123C129.648 193.332 110.366 193.421 105.576 193.899C105.235 193.951 104.925 194.118 104.702 194.37C104.48 194.621 104.359 194.941 104.363 195.27C104.367 195.6 104.495 195.917 104.723 196.164C104.952 196.411 105.265 196.571 105.608 196.616Z" fill="#F7F7F7"/>
</svg>
